<?xml version="1.0" standalone="no"?>
<!DOCTYPE svg PUBLIC "-//W3C//DTD SVG 20010904//EN"
 "http://www.w3.org/TR/2001/REC-SVG-20010904/DTD/svg10.dtd">
<svg version="1.0" xmlns="http://www.w3.org/2000/svg"
 width="960.000000pt" height="230.000000pt" viewBox="0 0 960.000000 230.000000"
 preserveAspectRatio="xMidYMid meet">
<metadata>
Created by potrace 1.15, written by Peter Selinger 2001-2017
</metadata>
<g transform="translate(0.000000,230.000000) scale(0.100000,-0.100000)"
fill="#fafafa" stroke="none">
<path d="M3530 2123 c0 -101 -5 -164 -15 -198 -8 -27 -12 -36 -9 -20 4 17 7
104 9 195 l2 165 -7 -160 c-9 -175 -14 -210 -39 -239 -15 -18 -15 -18 7 -7 12
6 22 9 22 6 0 -3 -19 -14 -42 -25 -29 -13 -37 -19 -23 -20 20 -1 19 -1 -1 -10
-20 -8 -21 -18 -34 -467 -7 -252 -16 -489 -20 -528 l-7 -70 -3 65 -2 65 -9
-59 c-5 -32 -12 -62 -15 -65 -4 -3 -4 9 -1 27 4 18 3 31 -1 28 -4 -2 -6 14 -5
37 l2 42 -8 -35 -8 -35 -2 33 c0 17 -5 32 -11 32 -5 0 -9 5 -7 11 1 6 -4 14
-12 17 -8 3 -11 0 -7 -7 11 -17 0 -13 -15 6 -12 14 -12 16 0 9 29 -18 4 20
-29 42 -42 28 -100 29 -131 1 l-24 -21 25 16 c31 20 82 20 120 1 17 -9 30 -18
30 -21 0 -2 -13 2 -30 11 -46 24 -94 19 -131 -13 -18 -15 -29 -20 -24 -12 11
18 7 50 -8 69 -6 7 -37 31 -69 52 l-58 40 -65 -52 c-36 -29 -66 -57 -66 -63
-1 -6 -5 5 -9 24 l-7 35 -3 -45 -3 -45 -6 45 -6 45 -105 -2 c-162 -4 -150 6
-152 -126 l-2 -112 -6 115 -6 115 -2 -112 -2 -113 -37 -2 c-35 -1 -34 -2 12
-8 l50 -7 -55 -1 c-52 -2 -80 -14 -80 -35 0 -4 6 -5 13 -1 7 4 9 3 4 -2 -5 -5
-12 -9 -16 -9 -12 0 -41 -32 -41 -45 0 -6 5 -8 13 -4 9 6 9 5 1 -7 -7 -8 -14
-34 -18 -59 -3 -25 -7 -51 -8 -58 -1 -9 -5 -9 -12 -2 -17 17 -126 13 -132 -5
-4 -8 -16 -15 -28 -16 -20 0 -20 -1 -1 -9 19 -8 19 -9 -2 -9 -12 -1 -24 -9
-26 -18 -3 -10 -6 2 -7 27 l-3 45 -7 -45 -7 -45 -1 48 -2 47 -82 1 c-46 0 -92
4 -103 8 -11 5 21 7 75 6 52 -1 68 -1 35 1 -84 6 -105 12 -106 32 0 14 -2 14
-9 -3 -7 -16 -9 -17 -9 -3 -1 9 -9 22 -18 27 -10 6 -13 11 -6 11 9 0 9 8 2 29
-12 34 -37 41 -144 41 -73 0 -93 -9 -108 -50 -5 -13 -6 -13 -6 1 -1 8 10 26
23 38 22 20 32 22 114 19 50 -2 88 0 85 5 -2 4 -44 7 -92 7 -83 0 -89 -1 -114
-28 -15 -15 -27 -33 -27 -40 0 -7 -10 -12 -22 -12 -21 -1 -20 -2 7 -15 22 -11
24 -13 6 -9 -14 4 -27 1 -32 -7 -7 -11 -9 -11 -9 -1 0 10 -3 10 -14 0 -12 -11
-11 -14 8 -20 18 -5 18 -6 -6 -7 -16 -1 -28 -5 -28 -9 0 -10 1 -9 -90 -21
l-65 -9 80 3 c48 2 72 0 60 -5 -11 -5 -50 -9 -87 -9 -52 -1 -68 -4 -68 -15 0
-8 -4 -18 -10 -21 -6 -4 -7 1 -3 11 4 12 3 15 -5 10 -7 -4 -12 -16 -12 -26 0
-10 -5 -22 -10 -25 -5 -3 -10 -21 -10 -39 0 -31 -1 -32 -33 -27 l-32 5 30 7
c17 4 25 7 19 8 -6 0 -15 18 -21 39 l-11 37 3 -40 4 -40 -11 43 c-11 41 -12
42 -53 42 -39 0 -43 -3 -53 -32 l-11 -33 4 35 5 35 -13 -34 c-16 -42 -23 -28
-26 54 -3 76 -11 85 -12 14 l-2 -54 -7 55 c-4 30 -11 93 -15 140 -4 47 -13 88
-19 92 -7 5 -7 8 2 8 7 0 10 5 7 10 -4 6 -10 8 -15 5 -5 -3 -12 0 -16 6 -4 8
-3 9 4 5 9 -5 12 10 10 56 l-1 63 -7 -55 -7 -55 -1 53 c-2 56 -22 74 -22 18 0
-18 -3 -55 -7 -82 l-7 -49 -7 35 -6 35 -2 -43 c-1 -32 2 -41 12 -36 8 5 8 2
-2 -9 -16 -20 -25 -22 -16 -4 4 6 -3 1 -14 -12 -14 -15 -21 -36 -20 -60 l1
-36 8 38 c4 20 11 41 15 45 5 4 5 -2 1 -13 -4 -10 -10 -71 -14 -135 l-7 -115
-6 90 -5 90 -2 -80 c-3 -97 -14 -123 -32 -70 -11 33 -15 36 -39 30 -14 -4 -30
-13 -34 -21 -5 -9 -26 -14 -62 -14 -30 0 -56 -3 -58 -7 -3 -5 27 -6 66 -5 40
2 70 1 67 -1 -3 -3 -40 -7 -83 -8 -56 -2 -77 -7 -77 -17 0 -7 5 -10 12 -6 7 4
8 3 4 -4 -13 -22 -26 -12 -26 19 0 27 -3 30 -22 24 -22 -5 -21 -5 2 10 l25 16
-28 -4 c-15 -2 -30 0 -33 5 -3 5 -12 7 -20 4 -7 -3 -16 -2 -18 3 -7 11 27 10
44 -2 8 -6 4 1 -10 15 -16 16 -27 21 -32 14 -5 -8 -8 -7 -8 2 0 17 -85 16
-146 -3 -73 -22 -74 -22 -74 41 0 32 -4 53 -10 49 -5 -3 -7 20 -4 60 3 41 1
65 -6 65 -5 0 -10 -8 -10 -17 0 -13 -2 -15 -9 -5 -4 7 -7 -12 -5 -45 2 -52 2
-54 -5 -18 l-8 40 -3 -42 c-4 -64 -11 -83 -33 -83 -6 0 -2 7 9 15 10 8 14 15
7 15 -27 0 -50 -50 -58 -122 -3 -40 -12 -76 -18 -80 -9 -6 -8 -8 2 -8 8 0 4
-7 -10 -18 -23 -18 -63 -36 -65 -30 0 2 -8 -3 -17 -10 -9 -8 -37 -17 -64 -22
-35 -5 -40 -8 -18 -9 17 0 46 3 64 9 23 6 31 6 25 0 -6 -6 -34 -13 -62 -17
l-52 -6 0 -153 0 -154 4800 0 4800 0 0 88 0 88 -30 11 c-40 15 -238 -14 -245
-37 -4 -12 -23 -14 -115 -12 -105 3 -110 4 -110 25 0 12 -8 41 -17 66 l-17 44
-110 -6 c-61 -4 -126 -11 -145 -17 -21 -6 -31 -6 -25 0 5 5 34 14 64 19 l55
10 -54 -4 c-38 -3 -61 -11 -78 -26 -27 -26 -31 -48 -5 -28 9 7 7 2 -5 -11
l-21 -23 -87 18 c-47 10 -88 21 -90 25 -3 4 30 -1 73 -11 42 -10 86 -18 97
-18 27 1 14 5 -77 24 l-78 17 -2 172 -2 171 -6 -170 c-4 -105 -7 -137 -8 -84
-11 437 -15 509 -31 510 -14 0 -13 1 1 7 13 5 15 11 8 22 -7 11 -10 11 -10 2
0 -7 -4 -10 -10 -7 -6 3 -10 48 -10 101 l0 94 -44 0 c-25 0 -47 3 -49 7 -3 5
18 7 46 7 31 -1 37 0 17 2 -19 3 -42 8 -50 11 -8 3 -17 7 -20 7 -3 1 -16 8
-30 16 -15 8 -56 14 -100 14 -87 1 -120 -4 -138 -21 -7 -7 -28 -14 -45 -14
-18 -1 -45 -5 -62 -10 -20 -5 -9 -6 30 -2 33 3 71 10 85 15 18 7 22 6 14 -2
-7 -7 -154 -40 -181 -40 -2 0 -4 -51 -5 -112 l-2 -113 -6 115 -6 115 -2 -97
-2 -98 -67 -2 -68 -2 70 -6 70 -6 -62 -2 c-75 -2 -93 -9 -87 -30 5 -15 4 -15
-6 1 -12 19 -74 24 -85 7 -3 -6 -25 -9 -48 -8 -40 1 -40 1 -7 5 19 2 45 9 57
15 12 6 35 9 52 6 16 -2 28 -1 25 4 -7 11 -72 10 -79 -2 -3 -5 -19 -10 -36
-10 -25 0 -29 4 -30 28 0 15 -4 36 -9 47 -6 14 -7 4 -5 -30 l4 -50 -10 53 c-9
47 -13 52 -37 53 l-27 1 25 8 c14 4 19 8 13 9 -7 1 -15 1 -18 1 -3 1 -23 7
-46 15 -23 8 -53 13 -68 10 l-26 -5 24 10 c17 7 34 8 54 0 17 -5 32 -8 34 -6
3 2 -11 9 -30 15 -38 13 -89 0 -85 -21 2 -7 -13 -18 -32 -25 l-35 -14 35 6
c25 3 31 2 20 -5 -8 -5 -25 -10 -37 -10 -18 0 -23 -6 -24 -27 l-1 -28 -8 25
c-8 24 -8 24 -9 3 -1 -21 -6 -23 -58 -25 l-58 -2 70 -6 70 -6 -82 -2 c-75 -2
-118 10 -76 21 16 4 16 5 1 6 -14 1 -17 16 -22 83 -3 46 -8 106 -12 133 l-8
50 -7 -35 -6 -35 -2 38 c-1 36 -2 37 -40 37 -22 0 -43 -5 -46 -10 -4 -6 -11
-8 -16 -5 -5 4 -9 -1 -9 -10 0 -10 5 -13 13 -9 8 5 8 2 -2 -9 -9 -12 -29 -17
-64 -17 -33 0 -57 -6 -71 -18 -21 -17 -21 -17 -2 5 15 18 31 23 75 25 l56 2
-54 3 c-51 4 -56 2 -92 -33 -39 -38 -54 -68 -21 -43 9 7 6 1 -7 -14 -26 -28
-40 -36 -25 -14 5 7 1 4 -8 -6 -14 -15 -18 -37 -18 -109 0 -57 -4 -87 -10 -83
-5 3 -10 0 -10 -8 0 -10 7 -14 23 -10 21 4 20 4 -3 -9 -14 -8 -26 -14 -27 -14
-1 1 -3 17 -5 36 -4 32 -7 35 -44 40 -21 3 -61 2 -89 -1 -41 -5 -36 -6 33 -7
46 0 86 -3 90 -6 3 -3 -30 -6 -74 -6 -43 0 -88 -2 -99 -4 -11 -2 -15 -1 -9 1
6 2 9 16 6 31 l-6 27 -7 -25 c-6 -23 -7 -23 -8 -3 -1 12 -9 24 -18 26 -13 3
-14 5 -3 6 13 1 14 16 10 91 -3 57 -10 94 -19 102 -11 11 -12 10 -2 -9 6 -12
10 -57 9 -100 l-1 -78 -8 90 c-4 50 -8 99 -9 109 -1 11 -6 29 -13 40 -6 12
-17 53 -24 91 l-13 70 5 -60 c3 -40 1 -53 -5 -40 -5 11 -9 37 -9 58 -1 55 -16
45 -29 -20 l-11 -58 4 55 c3 46 2 50 -6 25 -5 -16 -8 -44 -7 -62 1 -18 -1 -35
-5 -39 -4 -4 -7 0 -7 8 0 10 -13 18 -37 22 -49 8 -307 8 -327 0 -13 -5 -16
-29 -18 -148 l-2 -141 -6 145 -6 145 -2 -144 c-2 -147 -11 -176 -24 -73 l-6
57 1 -57 c1 -31 -1 -54 -5 -51 -5 2 -8 29 -8 60 l0 55 -87 -5 -88 -5 85 13 85
14 -74 -5 -74 -5 6 36 c7 45 -2 40 -14 -7 l-8 -33 2 37 c1 21 -2 38 -6 38 -4
0 -41 0 -82 0 -75 0 -75 0 -76 -27 l-1 -28 -8 30 -8 30 -1 -32 c-1 -20 4 -33
12 -33 8 0 7 -3 -3 -9 -8 -6 -17 -8 -21 -5 -4 2 -10 0 -14 -6 -3 -5 2 -10 12
-11 14 0 14 -2 -4 -9 -20 -8 -23 -17 -25 -72 l-1 -63 -7 60 -7 60 -2 -60 c-2
-33 -5 -53 -8 -44 -6 23 -53 31 -71 12 -11 -11 -13 -28 -9 -70 l6 -56 -27 26
c-15 14 -40 28 -57 30 -24 3 -22 4 7 3 20 -1 34 2 32 6 -3 5 -21 8 -40 8 l-34
0 -2 123 -2 122 -6 -130 -6 -130 -2 128 -2 127 -139 0 c-76 0 -159 -3 -185 -6
l-46 -7 -2 -156 -2 -156 -6 155 -6 155 -2 -163 c-2 -128 1 -162 11 -156 6 4 5
0 -3 -9 -8 -8 -31 -18 -50 -22 -44 -9 -33 4 12 15 31 8 32 8 6 9 l-28 1 -2
313 -3 312 -5 -320 -5 -320 -3 316 -2 317 -31 6 c-39 7 -187 8 -215 0 -20 -5
-21 -14 -28 -167 -4 -89 -8 -162 -9 -164 -2 -1 -25 2 -52 7 l-50 9 48 -2 47
-2 -2 80 -2 80 -3 -72 -4 -73 -29 0 -30 0 -2 73 -2 72 -6 -75 -6 -75 -2 73 -2
72 -30 0 c-17 0 -48 -6 -70 -12 -36 -12 -40 -17 -50 -61 -14 -64 -13 -407 0
-407 6 0 5 -6 -2 -14 -9 -10 -15 -11 -20 -2 -5 7 -8 5 -8 -6 0 -10 6 -18 13
-19 6 -1 1 -4 -13 -8 -22 -6 -25 -13 -28 -59 -2 -41 -7 -52 -20 -52 -9 0 -24
-4 -31 -9 -10 -6 -1 -8 26 -4 22 3 43 1 46 -3 3 -5 -19 -10 -49 -11 l-53 -1
-4 51 c-3 49 -3 48 -7 -18 l-4 -70 -5 70 c-6 63 -8 70 -31 76 l-25 7 25 2 c14
1 19 4 13 7 -7 2 -13 12 -14 21 0 14 -2 13 -9 -3 -7 -16 -9 -16 -9 -4 -1 9 -8
20 -17 23 -22 9 -24 8 -25 -11 0 -15 -2 -15 -9 2 l-9 20 0 -20 c-1 -17 -3 -17
-11 -5 -6 10 -10 -19 -13 -90 l-3 -105 -2 107 -2 107 -27 -5 c-16 -3 -39 -1
-53 5 -21 9 -18 9 16 5 23 -4 44 -2 47 3 3 5 -7 7 -23 5 -23 -3 -31 0 -36 14
-34 107 -89 194 -121 194 -8 0 -13 15 -14 43 l-2 42 -7 -40 -7 -40 -2 38 -1
37 -62 1 c-80 1 -125 16 -58 20 38 2 40 3 13 6 l-33 4 -2 87 -2 87 -6 -90 c-9
-129 -12 -83 -19 313 -6 338 -7 354 -26 369 -16 12 -16 14 -3 10 15 -5 16 -4
5 13 -6 11 -19 20 -29 20 -9 0 -20 4 -23 10 -3 5 0 7 9 4 13 -5 13 -2 3 20
-10 21 -13 22 -18 8 -4 -11 -8 -5 -13 20 -4 21 -14 44 -22 53 -9 8 -11 15 -5
15 7 0 10 42 9 128 l-2 127 -6 -125 -6 -125 -2 148 c-1 90 -6 147 -12 147 -6
0 -10 -56 -10 -147z"/>
</g>
</svg>
